<svg width="162" height="27" viewBox="0 0 162 27" fill="none" xmlns="http://www.w3.org/2000/svg">
<path d="M7.875 26V17.355L0.14 1.57H5.985L8.575 7.24L10.465 12.035H10.745L12.635 7.24L15.225 1.57H20.86L13.125 17.355V26H7.875ZM31.4863 26.42C30.0863 26.42 28.8263 26.21 27.7063 25.79C26.5863 25.3467 25.6297 24.7167 24.8363 23.9C24.0663 23.0833 23.4713 22.0917 23.0513 20.925C22.6313 19.7583 22.4213 18.44 22.4213 16.97C22.4213 15.5 22.6313 14.1817 23.0513 13.015C23.4713 11.8483 24.0663 10.8567 24.8363 10.04C25.6297 9.22333 26.5863 8.605 27.7063 8.185C28.8263 7.74167 30.0863 7.52 31.4863 7.52C32.8863 7.52 34.1463 7.74167 35.2663 8.185C36.3863 8.605 37.3313 9.22333 38.1013 10.04C38.8947 10.8567 39.5013 11.8483 39.9213 13.015C40.3413 14.1817 40.5513 15.5 40.5513 16.97C40.5513 18.44 40.3413 19.7583 39.9213 20.925C39.5013 22.0917 38.8947 23.0833 38.1013 23.9C37.3313 24.7167 36.3863 25.3467 35.2663 25.79C34.1463 26.21 32.8863 26.42 31.4863 26.42ZM31.4863 22.57C32.653 22.57 33.563 22.2083 34.2163 21.485C34.8697 20.7617 35.1963 19.735 35.1963 18.405V15.535C35.1963 14.205 34.8697 13.1783 34.2163 12.455C33.563 11.7317 32.653 11.37 31.4863 11.37C30.3197 11.37 29.4097 11.7317 28.7563 12.455C28.103 13.1783 27.7763 14.205 27.7763 15.535V18.405C27.7763 19.735 28.103 20.7617 28.7563 21.485C29.4097 22.2083 30.3197 22.57 31.4863 22.57ZM55.5177 22.71H55.3077C54.911 23.7367 54.281 24.6117 53.4177 25.335C52.5777 26.0583 51.4343 26.42 49.9877 26.42C49.1243 26.42 48.331 26.28 47.6077 26C46.8843 25.6967 46.266 25.2533 45.7527 24.67C45.2393 24.0867 44.831 23.375 44.5277 22.535C44.2477 21.695 44.1077 20.7267 44.1077 19.63V7.94H49.2877V18.93C49.2877 21.2633 50.3027 22.43 52.3327 22.43C52.7293 22.43 53.1143 22.3833 53.4877 22.29C53.8843 22.1733 54.2227 22.01 54.5027 21.8C54.806 21.5667 55.051 21.2867 55.2377 20.96C55.4243 20.6333 55.5177 20.2483 55.5177 19.805V7.94H60.6977V26H55.5177V22.71ZM74.859 26C72.9923 26 71.604 25.51 70.694 24.53C69.784 23.55 69.329 22.3017 69.329 20.785V11.965H64.429V7.94H67.614C68.384 7.94 68.9323 7.78833 69.259 7.485C69.5857 7.18166 69.749 6.62167 69.749 5.805V1.57H74.509V7.94H81.544V11.965H74.509V21.975H81.544V26H74.859ZM97.4903 22.71H97.2803C96.8836 23.7367 96.2536 24.6117 95.3903 25.335C94.5503 26.0583 93.407 26.42 91.9603 26.42C91.097 26.42 90.3036 26.28 89.5803 26C88.857 25.6967 88.2386 25.2533 87.7253 24.67C87.212 24.0867 86.8036 23.375 86.5003 22.535C86.2203 21.695 86.0803 20.7267 86.0803 19.63V7.94H91.2603V18.93C91.2603 21.2633 92.2753 22.43 94.3053 22.43C94.702 22.43 95.087 22.3833 95.4603 22.29C95.857 22.1733 96.1953 22.01 96.4753 21.8C96.7786 21.5667 97.0236 21.2867 97.2103 20.96C97.397 20.6333 97.4903 20.2483 97.4903 19.805V7.94H102.67V26H97.4903V22.71ZM106.997 0.0999997H112.177V11.23H112.422C112.865 10.1567 113.507 9.27 114.347 8.57C115.187 7.87 116.33 7.52 117.777 7.52C118.78 7.52 119.69 7.70667 120.507 8.08C121.347 8.45333 122.058 9.025 122.642 9.795C123.248 10.565 123.715 11.545 124.042 12.735C124.392 13.925 124.567 15.3367 124.567 16.97C124.567 18.6033 124.392 20.015 124.042 21.205C123.715 22.395 123.248 23.375 122.642 24.145C122.058 24.915 121.347 25.4867 120.507 25.86C119.69 26.2333 118.78 26.42 117.777 26.42C116.33 26.42 115.187 26.0817 114.347 25.405C113.507 24.705 112.865 23.8067 112.422 22.71H112.177V26H106.997V0.0999997ZM115.537 22.395C116.703 22.395 117.602 22.045 118.232 21.345C118.862 20.6217 119.177 19.63 119.177 18.37V15.57C119.177 14.31 118.862 13.33 118.232 12.63C117.602 11.9067 116.703 11.545 115.537 11.545C114.627 11.545 113.833 11.7667 113.157 12.21C112.503 12.6533 112.177 13.3533 112.177 14.31V19.63C112.177 20.5867 112.503 21.2867 113.157 21.73C113.833 22.1733 114.627 22.395 115.537 22.395ZM136.908 26.42C133.875 26.42 131.576 25.58 130.013 23.9C128.45 22.22 127.668 19.9333 127.668 17.04C127.668 15.57 127.866 14.2517 128.263 13.085C128.683 11.895 129.266 10.8917 130.013 10.075C130.783 9.235 131.705 8.605 132.778 8.185C133.875 7.74167 135.1 7.52 136.453 7.52C137.806 7.52 139.02 7.74167 140.093 8.185C141.166 8.605 142.076 9.21167 142.823 10.005C143.57 10.7983 144.141 11.7667 144.538 12.91C144.958 14.03 145.168 15.29 145.168 16.69V18.23H132.813V18.545C132.813 19.7117 133.175 20.6567 133.898 21.38C134.621 22.08 135.683 22.43 137.083 22.43C138.156 22.43 139.078 22.2317 139.848 21.835C140.618 21.415 141.283 20.8667 141.843 20.19L144.643 23.235C143.943 24.0983 142.963 24.845 141.703 25.475C140.443 26.105 138.845 26.42 136.908 26.42ZM136.488 11.23C135.368 11.23 134.47 11.58 133.793 12.28C133.14 12.9567 132.813 13.8783 132.813 15.045V15.325H140.093V15.045C140.093 13.855 139.766 12.9217 139.113 12.245C138.483 11.5683 137.608 11.23 136.488 11.23Z" fill="white"/>
<path d="M157.404 26.42C156.098 26.42 155.153 26.14 154.569 25.58C154.009 24.9967 153.729 24.3083 153.729 23.515V22.29C153.729 21.4967 154.009 20.82 154.569 20.26C155.153 19.6767 156.098 19.385 157.404 19.385C158.711 19.385 159.644 19.6767 160.204 20.26C160.788 20.82 161.079 21.4967 161.079 22.29V23.515C161.079 24.3083 160.788 24.9967 160.204 25.58C159.644 26.14 158.711 26.42 157.404 26.42Z" fill="#02C173"/>
</svg>
